<mxfile host="65bd71144e">
    <diagram id="KFinVVgFZJebpuZNeo9_" name="Page-1">
        <mxGraphModel dx="2228" dy="853" grid="1" gridSize="10" guides="1" tooltips="1" connect="1" arrows="1" fold="1" page="1" pageScale="1" pageWidth="850" pageHeight="1100" math="0" shadow="0">
            <root>
                <mxCell id="0"/>
                <mxCell id="1" parent="0"/>
                <mxCell id="21" style="edgeStyle=orthogonalEdgeStyle;html=1;exitX=0.5;exitY=0;exitDx=0;exitDy=0;entryX=0.5;entryY=1;entryDx=0;entryDy=0;dashed=1;startArrow=none;startFill=0;endArrow=open;endFill=0;" edge="1" parent="1" source="2" target="20">
                    <mxGeometry relative="1" as="geometry"/>
                </mxCell>
                <mxCell id="2" value="Usecase" style="rounded=0;whiteSpace=wrap;html=1;" vertex="1" parent="1">
                    <mxGeometry x="31" y="290" width="120" height="60" as="geometry"/>
                </mxCell>
                <mxCell id="5" style="edgeStyle=none;html=1;exitX=0;exitY=0.5;exitDx=0;exitDy=0;entryX=1;entryY=0.5;entryDx=0;entryDy=0;dashed=1;startArrow=open;startFill=0;endArrow=none;endFill=0;" edge="1" parent="1" source="3" target="2">
                    <mxGeometry relative="1" as="geometry"/>
                </mxCell>
                <mxCell id="6" style="edgeStyle=none;html=1;exitX=1;exitY=0.5;exitDx=0;exitDy=0;entryX=0;entryY=0.5;entryDx=0;entryDy=0;dashed=1;startArrow=none;startFill=0;endArrow=open;endFill=0;" edge="1" parent="1" source="3" target="4">
                    <mxGeometry relative="1" as="geometry"/>
                </mxCell>
                <mxCell id="23" style="edgeStyle=orthogonalEdgeStyle;html=1;exitX=0.5;exitY=0;exitDx=0;exitDy=0;entryX=1;entryY=0.5;entryDx=0;entryDy=0;dashed=1;startArrow=none;startFill=0;endArrow=open;endFill=0;" edge="1" parent="1" source="3" target="20">
                    <mxGeometry relative="1" as="geometry"/>
                </mxCell>
                <mxCell id="3" value="Repositories" style="rounded=0;whiteSpace=wrap;html=1;" vertex="1" parent="1">
                    <mxGeometry x="365" y="290" width="120" height="60" as="geometry"/>
                </mxCell>
                <mxCell id="22" style="html=1;exitX=0.5;exitY=0;exitDx=0;exitDy=0;entryX=0.5;entryY=0;entryDx=0;entryDy=0;dashed=1;startArrow=none;startFill=0;endArrow=open;endFill=0;edgeStyle=orthogonalEdgeStyle;" edge="1" parent="1" source="4" target="20">
                    <mxGeometry relative="1" as="geometry">
                        <Array as="points">
                            <mxPoint x="1006" y="120"/>
                            <mxPoint x="91" y="120"/>
                        </Array>
                    </mxGeometry>
                </mxCell>
                <mxCell id="4" value="Datasource" style="rounded=0;whiteSpace=wrap;html=1;" vertex="1" parent="1">
                    <mxGeometry x="946" y="290" width="120" height="60" as="geometry"/>
                </mxCell>
                <mxCell id="24" style="html=1;exitX=0.5;exitY=0;exitDx=0;exitDy=0;dashed=1;startArrow=none;startFill=0;endArrow=block;endFill=1;edgeStyle=orthogonalEdgeStyle;entryX=0.75;entryY=1;entryDx=0;entryDy=0;" edge="1" parent="1" source="7" target="4">
                    <mxGeometry relative="1" as="geometry">
                        <mxPoint x="1016" y="370" as="targetPoint"/>
                    </mxGeometry>
                </mxCell>
                <mxCell id="30" style="html=1;exitX=0.5;exitY=1;exitDx=0;exitDy=0;entryX=0.5;entryY=0;entryDx=0;entryDy=0;startArrow=diamondThin;startFill=0;endArrow=none;endFill=0;strokeWidth=1;edgeStyle=orthogonalEdgeStyle;" edge="1" parent="1" source="7" target="29">
                    <mxGeometry relative="1" as="geometry"/>
                </mxCell>
                <mxCell id="74" style="html=1;exitX=0;exitY=0.5;exitDx=0;exitDy=0;entryX=0.5;entryY=1;entryDx=0;entryDy=0;dashed=1;labelBorderColor=default;strokeWidth=1;startArrow=none;startFill=0;endArrow=open;endFill=0;edgeStyle=orthogonalEdgeStyle;" edge="1" parent="1" source="7" target="72">
                    <mxGeometry relative="1" as="geometry">
                        <Array as="points">
                            <mxPoint x="1080" y="430"/>
                            <mxPoint x="1080" y="500"/>
                            <mxPoint x="730" y="500"/>
                        </Array>
                    </mxGeometry>
                </mxCell>
                <mxCell id="7" value="LocalDatasource" style="rounded=0;whiteSpace=wrap;html=1;" vertex="1" parent="1">
                    <mxGeometry x="1110" y="400" width="120" height="60" as="geometry"/>
                </mxCell>
                <mxCell id="26" style="edgeStyle=orthogonalEdgeStyle;html=1;exitX=0.5;exitY=0;exitDx=0;exitDy=0;entryX=0.25;entryY=1;entryDx=0;entryDy=0;dashed=1;startArrow=none;startFill=0;endArrow=block;endFill=1;" edge="1" parent="1" source="8" target="4">
                    <mxGeometry relative="1" as="geometry"/>
                </mxCell>
                <mxCell id="73" style="edgeStyle=orthogonalEdgeStyle;html=1;exitX=0;exitY=0.5;exitDx=0;exitDy=0;entryX=1;entryY=0.5;entryDx=0;entryDy=0;dashed=1;labelBorderColor=default;strokeWidth=1;startArrow=none;startFill=0;endArrow=open;endFill=0;" edge="1" parent="1" source="8" target="72">
                    <mxGeometry relative="1" as="geometry"/>
                </mxCell>
                <mxCell id="8" value="RemoteDatasource" style="rounded=0;whiteSpace=wrap;html=1;" vertex="1" parent="1">
                    <mxGeometry x="886" y="400" width="120" height="60" as="geometry"/>
                </mxCell>
                <mxCell id="12" style="edgeStyle=orthogonalEdgeStyle;html=1;exitX=1;exitY=0.5;exitDx=0;exitDy=0;entryX=0;entryY=0.5;entryDx=0;entryDy=0;dashed=1;startArrow=none;startFill=0;endArrow=open;endFill=0;" edge="1" parent="1" source="11" target="2">
                    <mxGeometry relative="1" as="geometry"/>
                </mxCell>
                <mxCell id="14" style="edgeStyle=orthogonalEdgeStyle;html=1;exitX=0.5;exitY=0;exitDx=0;exitDy=0;entryX=0.5;entryY=1;entryDx=0;entryDy=0;dashed=1;startArrow=none;startFill=0;endArrow=block;endFill=1;" edge="1" parent="1" source="13" target="2">
                    <mxGeometry relative="1" as="geometry"/>
                </mxCell>
                <mxCell id="13" value="UsecaseImpl" style="rounded=0;whiteSpace=wrap;html=1;" vertex="1" parent="1">
                    <mxGeometry x="31" y="400" width="120" height="60" as="geometry"/>
                </mxCell>
                <mxCell id="16" style="edgeStyle=orthogonalEdgeStyle;html=1;exitX=0.5;exitY=0;exitDx=0;exitDy=0;entryX=0.5;entryY=1;entryDx=0;entryDy=0;dashed=1;startArrow=none;startFill=0;endArrow=block;endFill=1;" edge="1" parent="1" source="15" target="3">
                    <mxGeometry relative="1" as="geometry"/>
                </mxCell>
                <mxCell id="15" value="RepositoriesImpl" style="rounded=0;whiteSpace=wrap;html=1;" vertex="1" parent="1">
                    <mxGeometry x="365" y="400" width="120" height="60" as="geometry"/>
                </mxCell>
                <mxCell id="75" style="edgeStyle=orthogonalEdgeStyle;html=1;exitX=1;exitY=0.25;exitDx=0;exitDy=0;entryX=0.5;entryY=0;entryDx=0;entryDy=0;labelBorderColor=default;strokeWidth=1;startArrow=none;startFill=0;endArrow=none;endFill=0;" edge="1" parent="1" source="20" target="72">
                    <mxGeometry relative="1" as="geometry"/>
                </mxCell>
                <mxCell id="20" value="Entity" style="rounded=0;whiteSpace=wrap;html=1;" vertex="1" parent="1">
                    <mxGeometry x="31" y="160" width="120" height="60" as="geometry"/>
                </mxCell>
                <mxCell id="35" style="edgeStyle=orthogonalEdgeStyle;html=1;exitX=0.5;exitY=1;exitDx=0;exitDy=0;entryX=0;entryY=0.5;entryDx=0;entryDy=0;entryPerimeter=0;strokeWidth=1;startArrow=none;startFill=0;endArrow=open;endFill=0;" edge="1" parent="1" source="11" target="34">
                    <mxGeometry relative="1" as="geometry"/>
                </mxCell>
                <mxCell id="36" value="Observe state&lt;br&gt;" style="edgeLabel;html=1;align=center;verticalAlign=middle;resizable=0;points=[];" vertex="1" connectable="0" parent="35">
                    <mxGeometry x="-0.7229" y="3" relative="1" as="geometry">
                        <mxPoint y="-79" as="offset"/>
                    </mxGeometry>
                </mxCell>
                <mxCell id="50" value="Observe" style="edgeLabel;html=1;align=center;verticalAlign=middle;resizable=0;points=[];" vertex="1" connectable="0" parent="35">
                    <mxGeometry x="-0.9303" y="1" relative="1" as="geometry">
                        <mxPoint as="offset"/>
                    </mxGeometry>
                </mxCell>
                <mxCell id="27" value="View" style="rounded=0;whiteSpace=wrap;html=1;" vertex="1" parent="1">
                    <mxGeometry x="-750" y="290" width="120" height="60" as="geometry"/>
                </mxCell>
                <mxCell id="52" style="html=1;entryX=1;entryY=1;entryDx=0;entryDy=-15;entryPerimeter=0;labelBorderColor=default;strokeWidth=1;startArrow=none;startFill=0;endArrow=open;endFill=0;exitX=0.5;exitY=1;exitDx=0;exitDy=0;edgeStyle=orthogonalEdgeStyle;dashed=1;" edge="1" parent="1" source="29" target="34">
                    <mxGeometry relative="1" as="geometry"/>
                </mxCell>
                <mxCell id="53" value="dispatch action(update state)" style="edgeLabel;html=1;align=center;verticalAlign=middle;resizable=0;points=[];" vertex="1" connectable="0" parent="52">
                    <mxGeometry x="0.9421" y="-1" relative="1" as="geometry">
                        <mxPoint x="63" as="offset"/>
                    </mxGeometry>
                </mxCell>
                <mxCell id="29" value="Realm" style="rounded=0;whiteSpace=wrap;html=1;" vertex="1" parent="1">
                    <mxGeometry x="1110" y="640" width="120" height="60" as="geometry"/>
                </mxCell>
                <mxCell id="31" style="html=1;entryX=0.173;entryY=-0.009;entryDx=0;entryDy=0;startArrow=diamondThin;startFill=0;endArrow=none;endFill=0;strokeWidth=1;exitX=0.25;exitY=1;exitDx=0;exitDy=0;entryPerimeter=0;" edge="1" parent="1" target="32" source="8">
                    <mxGeometry relative="1" as="geometry">
                        <mxPoint x="1236" y="370" as="sourcePoint"/>
                    </mxGeometry>
                </mxCell>
                <mxCell id="43" value="&lt;span style=&quot;font-style: normal; font-weight: 400;&quot;&gt;dispatch action(get/set...)&lt;/span&gt;" style="edgeStyle=orthogonalEdgeStyle;html=1;exitX=0.25;exitY=1;exitDx=0;exitDy=0;entryX=1;entryY=0.5;entryDx=0;entryDy=0;entryPerimeter=0;strokeWidth=1;startArrow=none;startFill=0;endArrow=open;endFill=0;fontStyle=7;labelBorderColor=default;dashed=1;" edge="1" parent="1" source="32" target="42">
                    <mxGeometry x="0.3143" relative="1" as="geometry">
                        <mxPoint x="1" as="offset"/>
                    </mxGeometry>
                </mxCell>
                <mxCell id="32" value="Dispatcher" style="rounded=0;whiteSpace=wrap;html=1;" vertex="1" parent="1">
                    <mxGeometry x="896" y="640" width="120" height="60" as="geometry"/>
                </mxCell>
                <mxCell id="34" value="Redux-state" style="shape=cylinder3;whiteSpace=wrap;html=1;boundedLbl=1;backgroundOutline=1;size=15;" vertex="1" parent="1">
                    <mxGeometry x="-270" y="710" width="90" height="110" as="geometry"/>
                </mxCell>
                <mxCell id="45" style="edgeStyle=orthogonalEdgeStyle;html=1;entryX=0;entryY=0.5;entryDx=0;entryDy=0;entryPerimeter=0;strokeWidth=1;startArrow=none;startFill=0;endArrow=open;endFill=0;exitX=1;exitY=0.5;exitDx=0;exitDy=0;" edge="1" parent="1" source="39" target="42">
                    <mxGeometry relative="1" as="geometry">
                        <mxPoint x="160" y="738" as="sourcePoint"/>
                    </mxGeometry>
                </mxCell>
                <mxCell id="46" value="Observe" style="edgeLabel;html=1;align=center;verticalAlign=middle;resizable=0;points=[];rotation=0;" vertex="1" connectable="0" parent="45">
                    <mxGeometry x="-0.8648" y="1" relative="1" as="geometry">
                        <mxPoint x="30" y="1" as="offset"/>
                    </mxGeometry>
                </mxCell>
                <mxCell id="47" style="html=1;exitX=0;exitY=0.5;exitDx=0;exitDy=0;entryX=1;entryY=0;entryDx=0;entryDy=27.5;entryPerimeter=0;strokeWidth=1;startArrow=none;startFill=0;endArrow=open;endFill=0;edgeStyle=orthogonalEdgeStyle;dashed=1;" edge="1" parent="1" source="39" target="34">
                    <mxGeometry relative="1" as="geometry"/>
                </mxCell>
                <mxCell id="49" value="dispatch action(update state)" style="edgeLabel;html=1;align=center;verticalAlign=middle;resizable=0;points=[];" vertex="1" connectable="0" parent="47">
                    <mxGeometry x="0.8099" y="1" relative="1" as="geometry">
                        <mxPoint x="75" y="-1" as="offset"/>
                    </mxGeometry>
                </mxCell>
                <mxCell id="39" value="Saga" style="shape=process;whiteSpace=wrap;html=1;backgroundOutline=1;" vertex="1" parent="1">
                    <mxGeometry x="40" y="710" width="120" height="60" as="geometry"/>
                </mxCell>
                <mxCell id="42" value="Redux- action" style="shape=cylinder3;whiteSpace=wrap;html=1;boundedLbl=1;backgroundOutline=1;size=15;" vertex="1" parent="1">
                    <mxGeometry x="310" y="690" width="80" height="100" as="geometry"/>
                </mxCell>
                <mxCell id="66" style="html=1;exitX=0.5;exitY=0;exitDx=0;exitDy=0;dashed=1;startArrow=none;startFill=0;endArrow=open;endFill=0;entryX=0;entryY=0.5;entryDx=0;entryDy=0;edgeStyle=orthogonalEdgeStyle;" edge="1" parent="1" source="11" target="20">
                    <mxGeometry relative="1" as="geometry">
                        <mxPoint x="101" y="300" as="sourcePoint"/>
                        <mxPoint x="260" y="240" as="targetPoint"/>
                    </mxGeometry>
                </mxCell>
                <mxCell id="70" value="" style="edgeStyle=orthogonalEdgeStyle;html=1;exitX=1;exitY=0.5;exitDx=0;exitDy=0;dashed=1;startArrow=none;startFill=0;endArrow=open;endFill=0;" edge="1" parent="1" source="27" target="11">
                    <mxGeometry relative="1" as="geometry">
                        <mxPoint x="-180" y="320" as="targetPoint"/>
                        <mxPoint x="-430" y="320" as="sourcePoint"/>
                    </mxGeometry>
                </mxCell>
                <mxCell id="71" value="Observe" style="edgeLabel;html=1;align=center;verticalAlign=middle;resizable=0;points=[];" vertex="1" connectable="0" parent="70">
                    <mxGeometry x="-0.773" y="-3" relative="1" as="geometry">
                        <mxPoint x="20" y="-3" as="offset"/>
                    </mxGeometry>
                </mxCell>
                <mxCell id="11" value="Viewmodel" style="rounded=0;whiteSpace=wrap;html=1;" vertex="1" parent="1">
                    <mxGeometry x="-370" y="290" width="120" height="60" as="geometry"/>
                </mxCell>
                <mxCell id="72" value="EntityModel" style="rounded=0;whiteSpace=wrap;html=1;" vertex="1" parent="1">
                    <mxGeometry x="670" y="400" width="120" height="60" as="geometry"/>
                </mxCell>
            </root>
        </mxGraphModel>
    </diagram>
</mxfile>